<?xml version="1.0" encoding="UTF-8"?>
<svg width="320px" height="65px" viewBox="0 0 320 65" version="1.1" xmlns="http://www.w3.org/2000/svg" xmlns:xlink="http://www.w3.org/1999/xlink">
    <title>Artboard</title>
    <defs>
        <circle id="path-1" cx="24.5" cy="24.5" r="24.5"></circle>
    </defs>
    <g id="Artboard" stroke="none" stroke-width="1" fill="none" fill-rule="evenodd">
        <g id="Group-2" transform="translate(10, 0)">
            <g id="Group">
                <mask id="mask-2" fill="white">
                    <use xlink:href="#path-1"></use>
                </mask>
                <circle stroke="#979797" stroke-width="3" cx="24.5" cy="24.5" r="23"></circle>
                <circle id="Oval" stroke="#823AA3" stroke-width="3" mask="url(#mask-2)" cx="24.5" cy="24.5" r="23"></circle>
            </g>
            <line x1="53.5" y1="25.4878049" x2="53.5" y2="64.5121951" id="Line" stroke="#A84CD3" stroke-width="3" stroke-linecap="square"></line>
            <circle id="Oval" fill="#823AA3" cx="51" cy="24" r="4"></circle>
        </g>
        <g id="Darn-Fine-Software" transform="translate(93, 22)" fill="#000000" fill-rule="nonzero">
            <path d="M6.97763578,2 C10.027689,2 12.2939297,2.75847458 13.7763578,4.27542373 C15.2587859,5.79237288 16,7.96610169 16,10.7966102 C16,12.6440678 15.6379127,14.2584746 14.913738,15.6398305 C14.1895634,17.0211864 13.1373802,18.0932203 11.7571885,18.8559322 C10.3769968,19.6186441 8.70713525,20 6.74760383,20 C6.49201278,20 6.15122471,19.9915254 5.72523962,19.9745763 C5.29925453,19.9576271 4.86048988,19.9449153 4.40894569,19.9364407 C3.95740149,19.9279661 3.54419595,19.9237288 3.16932907,19.9237288 C2.57294995,19.9237288 1.98509052,19.9279661 1.4057508,19.9364407 C0.826411076,19.9449153 0.357827476,19.9661017 0,20 L0,19.4915254 C0.579339723,19.4576271 1.01810437,19.3898305 1.31629393,19.2881356 C1.61448349,19.1864407 1.81469649,18.9830508 1.91693291,18.6779661 C2.01916933,18.3728814 2.07028754,17.9152542 2.07028754,17.3050847 L2.07028754,4.69491525 C2.07028754,4.06779661 2.01916933,3.6059322 1.91693291,3.30932203 C1.81469649,3.01271186 1.61448349,2.80932203 1.31629393,2.69915254 C1.01810437,2.58898305 0.579339723,2.52542373 0,2.50847458 L0,2 C0.357827476,2.01694915 0.826411076,2.03813559 1.4057508,2.06355932 C1.98509052,2.08898305 2.55591054,2.09322034 3.11821086,2.07627119 C3.71458999,2.05932203 4.38764643,2.04237288 5.13738019,2.02542373 C5.88711395,2.00847458 6.50053248,2 6.97763578,2 Z M6.33865815,2.45762712 C5.55484558,2.45762712 5.04366347,2.60169492 4.80511182,2.88983051 C4.56656017,3.1779661 4.44728435,3.76271186 4.44728435,4.6440678 L4.44728435,17.3559322 C4.44728435,18.2372881 4.57082002,18.8220339 4.81789137,19.1101695 C5.06496273,19.3983051 5.58040469,19.5423729 6.36421725,19.5423729 C8.22151225,19.5423729 9.66134185,19.2076271 10.6837061,18.5381356 C11.7060703,17.8686441 12.4217252,16.8898305 12.8306709,15.6016949 C13.2396166,14.3135593 13.4440895,12.7457627 13.4440895,10.8983051 C13.4440895,9 13.2183174,7.4279661 12.7667732,6.18220339 C12.315229,4.93644068 11.5740149,4.00423729 10.543131,3.38559322 C9.51224707,2.76694915 8.11075612,2.45762712 6.33865815,2.45762712 Z" id="Shape"></path>
            <path d="M21.4585153,20 C20.7423581,20 20.1222707,19.8746891 19.5982533,19.6240672 C19.0742358,19.3734453 18.6768559,19.0217662 18.4061135,18.5690299 C18.1353712,18.1162935 18,17.590796 18,16.9925373 C18,16.2810945 18.1790393,15.699005 18.5371179,15.2462687 C18.8951965,14.7935323 19.3537118,14.4297264 19.9126638,14.1548507 C20.4716157,13.8799751 21.0611354,13.6495647 21.6812227,13.4636194 C22.30131,13.2776741 22.8908297,13.0998134 23.4497817,12.9300373 C24.0087336,12.7602612 24.4672489,12.5621891 24.8253275,12.3358209 C25.1834061,12.1094527 25.3624454,11.8103234 25.3624454,11.4384328 L25.3624454,9.93470149 C25.3624454,9.25559701 25.2532751,8.73818408 25.0349345,8.38246269 C24.8165939,8.02674129 24.5240175,7.78824627 24.1572052,7.66697761 C23.790393,7.54570896 23.3799127,7.48507463 22.9257642,7.48507463 C22.489083,7.48507463 22.0218341,7.54166667 21.5240175,7.65485075 C21.0262009,7.76803483 20.628821,8.00248756 20.3318777,8.35820896 C20.6637555,8.42288557 20.9519651,8.58457711 21.1965066,8.84328358 C21.441048,9.10199005 21.5633188,9.43345771 21.5633188,9.83768657 C21.5633188,10.2419154 21.4235808,10.5612562 21.1441048,10.795709 C20.8646288,11.0301617 20.5065502,11.1473881 20.069869,11.1473881 C19.5633188,11.1473881 19.1921397,10.9978234 18.9563319,10.698694 C18.720524,10.3995647 18.6026201,10.0640547 18.6026201,9.69216418 C18.6026201,9.27176617 18.7161572,8.93221393 18.9432314,8.67350746 C19.1703057,8.414801 19.4585153,8.17226368 19.8078603,7.94589552 C20.209607,7.68718905 20.7292576,7.46486318 21.3668122,7.27891791 C22.0043668,7.09297264 22.7248908,7 23.5283843,7 C24.2445415,7 24.8558952,7.07680348 25.3624454,7.23041045 C25.8689956,7.38401741 26.2882096,7.60634328 26.6200873,7.89738806 C27.0742358,8.28544776 27.371179,8.75839552 27.510917,9.31623134 C27.650655,9.87406716 27.720524,10.5410448 27.720524,11.3171642 L27.720524,18.0597015 C27.720524,18.4639303 27.7860262,18.7549751 27.9170306,18.9328358 C28.0480349,19.1106965 28.2532751,19.1996269 28.5327511,19.1996269 C28.7248908,19.1996269 28.9082969,19.159204 29.0829694,19.0783582 C29.2576419,18.9975124 29.4672489,18.8681592 29.7117904,18.6902985 L30,19.1026119 C29.6331878,19.3613184 29.2838428,19.5755597 28.9519651,19.7453358 C28.6200873,19.9151119 28.1746725,20 27.6157205,20 C27.1091703,20 26.6899563,19.9191542 26.3580786,19.7574627 C26.0262009,19.5957711 25.7772926,19.3572761 25.6113537,19.0419776 C25.4454148,18.7266791 25.3624454,18.3264925 25.3624454,17.8414179 C24.8908297,18.5690299 24.3275109,19.1106965 23.6724891,19.4664179 C23.0174672,19.8221393 22.279476,20 21.4585153,20 Z M22.4017467,19.0298507 C22.9781659,19.0298507 23.5152838,18.8762438 24.0131004,18.5690299 C24.510917,18.2618159 24.9606987,17.800995 25.3624454,17.1865672 L25.3624454,12.4328358 C25.1528384,12.7077114 24.8471616,12.9381219 24.4454148,13.1240672 C24.0436681,13.3100124 23.6069869,13.4959577 23.1353712,13.681903 C22.6637555,13.8678483 22.2139738,14.0861318 21.7860262,14.3367537 C21.3580786,14.5873756 21.0043668,14.914801 20.7248908,15.3190299 C20.4454148,15.7232587 20.3056769,16.2487562 20.3056769,16.8955224 C20.3056769,17.5422886 20.4934498,18.0597015 20.8689956,18.4477612 C21.2445415,18.8358209 21.7554585,19.0298507 22.4017467,19.0298507 Z" id="Shape"></path>
            <path d="M37.7363184,7 C38.1840796,7 38.5779436,7.09010712 38.9179104,7.27032136 C39.2578773,7.4505356 39.5232172,7.68399496 39.7139303,7.97069943 C39.9046434,8.25740391 40,8.58097038 40,8.94139887 C40,9.35097669 39.871476,9.71140517 39.6144279,10.0226843 C39.3573798,10.3339635 39.013267,10.489603 38.5820896,10.489603 C38.2338308,10.489603 37.9270315,10.379017 37.6616915,10.157845 C37.3963516,9.93667297 37.2636816,9.62129805 37.2636816,9.21172023 C37.2636816,8.90044108 37.3507463,8.6342155 37.5248756,8.41304348 C37.699005,8.19187146 37.893864,8.01575299 38.1094527,7.88468809 C37.9933665,7.72085696 37.8192371,7.6389414 37.5870647,7.6389414 C37.0729685,7.6389414 36.6003317,7.79048519 36.1691542,8.09357278 C35.7379768,8.39666037 35.3731343,8.78575929 35.0746269,9.26086957 C34.7761194,9.73597984 34.5439469,10.2397606 34.3781095,10.7722117 C34.212272,11.3046629 34.1293532,11.800252 34.1293532,12.2589792 L34.1293532,17.4688091 C34.1293532,18.2715816 34.3656716,18.8081285 34.8383085,19.0784499 C35.3109453,19.3487713 35.9535655,19.4839319 36.7661692,19.4839319 L36.7661692,20 C36.384743,19.9836169 35.8457711,19.963138 35.1492537,19.9385633 C34.4527363,19.9139887 33.7147595,19.9017013 32.9353234,19.9017013 C32.371476,19.9017013 31.8117745,19.9139887 31.2562189,19.9385633 C30.7006633,19.963138 30.2819237,19.9836169 30,20 L30,19.4839319 C30.6799337,19.4839319 31.1650083,19.3610586 31.4552239,19.1153119 C31.7454395,18.8695652 31.8905473,18.4026465 31.8905473,17.7145558 L31.8905473,10.0226843 C31.8905473,9.28544423 31.7578773,8.74070573 31.4925373,8.38846881 C31.2271973,8.03623188 30.7296849,7.86011342 30,7.86011342 L30,7.34404537 C30.5306799,7.39319471 31.0447761,7.41776938 31.5422886,7.41776938 C32.0232172,7.41776938 32.4834163,7.38909893 32.9228856,7.33175803 C33.3623549,7.27441714 33.7645108,7.1884058 34.1293532,7.07372401 L34.1293532,10.1455577 C34.3117745,9.67044739 34.5729685,9.19124134 34.9129353,8.70793951 C35.2529022,8.22463768 35.6633499,7.81915564 36.1442786,7.49149338 C36.6252073,7.16383113 37.1558872,7 37.7363184,7 Z" id="Path"></path>
            <path d="M49.5063291,7 C50.1476793,7 50.6835443,7.08191556 51.1139241,7.24574669 C51.5443038,7.40957782 51.9029536,7.6389414 52.1898734,7.93383743 C52.5105485,8.26149968 52.7383966,8.6710775 52.8734177,9.16257089 C53.0084388,9.65406427 53.0759494,10.3175803 53.0759494,11.1531191 L53.0759494,17.7145558 C53.0759494,18.4026465 53.2236287,18.8695652 53.5189873,19.1153119 C53.814346,19.3610586 54.3080169,19.4839319 55,19.4839319 L55,20 C54.7130802,19.9836169 54.2742616,19.963138 53.6835443,19.9385633 C53.092827,19.9139887 52.5189873,19.9017013 51.9620253,19.9017013 C51.4050633,19.9017013 50.8607595,19.9139887 50.3291139,19.9385633 C49.7974684,19.963138 49.3966245,19.9836169 49.1265823,20 L49.1265823,19.4839319 C49.7341772,19.4839319 50.164557,19.3610586 50.4177215,19.1153119 C50.6708861,18.8695652 50.7974684,18.4026465 50.7974684,17.7145558 L50.7974684,10.6124764 C50.7974684,10.1045999 50.7552743,9.63768116 50.6708861,9.21172023 C50.5864979,8.78575929 50.3966245,8.44171393 50.1012658,8.17958412 C49.8059072,7.91745432 49.3544304,7.78638941 48.7468354,7.78638941 C48.0379747,7.78638941 47.4177215,7.98298677 46.8860759,8.37618147 C46.3544304,8.76937618 45.9409283,9.30592313 45.6455696,9.98582231 C45.350211,10.6657215 45.2025316,11.4234405 45.2025316,12.2589792 L45.2025316,17.7145558 C45.2025316,18.4026465 45.3291139,18.8695652 45.5822785,19.1153119 C45.835443,19.3610586 46.2658228,19.4839319 46.8734177,19.4839319 L46.8734177,20 C46.6033755,19.9836169 46.2025316,19.963138 45.6708861,19.9385633 C45.1392405,19.9139887 44.5949367,19.9017013 44.0379747,19.9017013 C43.4810127,19.9017013 42.907173,19.9139887 42.3164557,19.9385633 C41.7257384,19.963138 41.2869198,19.9836169 41,20 L41,19.4839319 C41.6919831,19.4839319 42.185654,19.3610586 42.4810127,19.1153119 C42.7763713,18.8695652 42.9240506,18.4026465 42.9240506,17.7145558 L42.9240506,10.0226843 C42.9240506,9.28544423 42.7890295,8.74070573 42.5189873,8.38846881 C42.2489451,8.03623188 41.742616,7.86011342 41,7.86011342 L41,7.34404537 C41.5400844,7.39319471 42.0632911,7.41776938 42.5696203,7.41776938 C43.0590717,7.41776938 43.5274262,7.38909893 43.9746835,7.33175803 C44.4219409,7.27441714 44.8312236,7.1884058 45.2025316,7.07372401 L45.2025316,9.97353497 C45.6413502,8.8594833 46.2531646,8.08538122 47.0379747,7.65122873 C47.8227848,7.21707624 48.6455696,7 49.5063291,7 Z" id="Path"></path>
            <path d="M76,2 C75.9305277,2.6440678 75.8827655,3.26694915 75.8567134,3.86864407 C75.8306613,4.47033898 75.8176353,4.93220339 75.8176353,5.25423729 C75.8176353,5.66101695 75.8263193,6.04237288 75.8436874,6.39830508 C75.8610554,6.75423729 75.8784235,7.06779661 75.8957916,7.33898305 L75.2965932,7.33898305 C75.1750167,6.15254237 75.01002,5.21610169 74.8016032,4.52966102 C74.5931864,3.84322034 74.2284569,3.34745763 73.7074148,3.04237288 C73.1863727,2.73728814 72.3787575,2.58474576 71.2845691,2.58474576 L69.6432866,2.58474576 C69.0527722,2.58474576 68.6055444,2.63135593 68.3016032,2.72457627 C67.997662,2.81779661 67.7935872,3.01271186 67.6893788,3.30932203 C67.5851703,3.6059322 67.5330661,4.06779661 67.5330661,4.69491525 L67.5330661,17.3050847 C67.5330661,17.9152542 67.5981964,18.3728814 67.7284569,18.6779661 C67.8587174,18.9830508 68.1148965,19.1864407 68.496994,19.2881356 C68.8790915,19.3898305 69.4348697,19.4576271 70.1643287,19.4915254 L70.1643287,20 C69.7127589,19.9661017 69.1396126,19.9449153 68.4448898,19.9364407 C67.750167,19.9279661 67.0467602,19.9237288 66.3346693,19.9237288 C65.6573146,19.9237288 65.0233801,19.9279661 64.4328657,19.9364407 C63.8423514,19.9449153 63.3647295,19.9661017 63,20 L63,19.4915254 C63.5905144,19.4576271 64.0377422,19.3898305 64.3416834,19.2881356 C64.6456246,19.1864407 64.8496994,18.9830508 64.9539078,18.6779661 C65.0581162,18.3728814 65.1102204,17.9152542 65.1102204,17.3050847 L65.1102204,4.69491525 C65.1102204,4.06779661 65.0581162,3.6059322 64.9539078,3.30932203 C64.8496994,3.01271186 64.6456246,2.80932203 64.3416834,2.69915254 C64.0377422,2.58898305 63.5905144,2.52542373 63,2.50847458 L63,2 C63.6426186,2.01694915 64.3199733,2.02966102 65.0320641,2.03813559 C65.744155,2.04661017 66.4475618,2.05508475 67.1422846,2.06355932 C67.8370073,2.0720339 68.4839679,2.07627119 69.0831663,2.07627119 C69.6823647,2.07627119 70.1730127,2.07627119 70.5551102,2.07627119 C71.3540414,2.07627119 72.261523,2.0720339 73.2775551,2.06355932 C74.2935872,2.05508475 75.2010688,2.03389831 76,2 Z M71.9619238,10.9491525 C71.9619238,10.9491525 71.9619238,11.0338983 71.9619238,11.2033898 C71.9619238,11.3728814 71.9619238,11.4576271 71.9619238,11.4576271 L66.751503,11.4576271 C66.751503,11.4576271 66.751503,11.3728814 66.751503,11.2033898 C66.751503,11.0338983 66.751503,10.9491525 66.751503,10.9491525 L71.9619238,10.9491525 Z M72.4569138,7.59322034 C72.3874415,8.55932203 72.3570474,9.29661017 72.3657315,9.80508475 C72.3744155,10.3135593 72.3787575,10.779661 72.3787575,11.2033898 C72.3787575,11.6271186 72.3874415,12.0932203 72.4048096,12.6016949 C72.4221777,13.1101695 72.4655979,13.8474576 72.5350701,14.8135593 L71.9358717,14.8135593 C71.8663995,14.2711864 71.7839011,13.7415254 71.6883768,13.2245763 C71.5928524,12.7076271 71.3844355,12.2838983 71.0631263,11.9533898 C70.741817,11.6228814 70.1990648,11.4576271 69.4348697,11.4576271 L69.4348697,10.9491525 C70.008016,10.9491525 70.4465598,10.8347458 70.750501,10.6059322 C71.0544422,10.3771186 71.2758851,10.0847458 71.4148297,9.72881356 C71.5537742,9.37288136 71.6492986,9.00423729 71.7014028,8.62288136 C71.753507,8.24152542 71.8056112,7.89830508 71.8577154,7.59322034 L72.4569138,7.59322034 Z" id="Shape"></path>
            <path d="M79.8264463,1 C80.2561983,1 80.6280992,1.15729847 80.9421488,1.47189542 C81.2561983,1.78649237 81.4132231,2.15904139 81.4132231,2.58954248 C81.4132231,3.02004357 81.2561983,3.39259259 80.9421488,3.70718954 C80.6280992,4.02178649 80.2561983,4.17908497 79.8264463,4.17908497 C79.3966942,4.17908497 79.0247934,4.02178649 78.7107438,3.70718954 C78.3966942,3.39259259 78.2396694,3.02004357 78.2396694,2.58954248 C78.2396694,2.15904139 78.3966942,1.78649237 78.7107438,1.47189542 C79.0247934,1.15729847 79.3966942,1 79.8264463,1 Z M81.1157025,6.93594771 L81.1157025,17.6901961 C81.1157025,18.3856209 81.2603306,18.8575163 81.5495868,19.1058824 C81.838843,19.3542484 82.322314,19.4784314 83,19.4784314 L83,20 C82.7190083,19.9834423 82.2933884,19.9627451 81.7231405,19.9379085 C81.1528926,19.9130719 80.5785124,19.9006536 80,19.9006536 C79.4380165,19.9006536 78.8677686,19.9130719 78.2892562,19.9379085 C77.7107438,19.9627451 77.2809917,19.9834423 77,20 L77,19.4784314 C77.677686,19.4784314 78.161157,19.3542484 78.4504132,19.1058824 C78.7396694,18.8575163 78.8842975,18.3856209 78.8842975,17.6901961 L78.8842975,9.91633987 C78.8842975,9.17124183 78.7520661,8.62069717 78.4876033,8.26470588 C78.2231405,7.9087146 77.7272727,7.73071895 77,7.73071895 L77,7.20915033 C77.5289256,7.25882353 78.0413223,7.28366013 78.5371901,7.28366013 C79.0165289,7.28366013 79.4752066,7.2546841 79.9132231,7.19673203 C80.3512397,7.13877996 80.7520661,7.05185185 81.1157025,6.93594771 Z" id="Shape"></path>
            <path d="M92.5063291,7 C93.1476793,7 93.6835443,7.08191556 94.1139241,7.24574669 C94.5443038,7.40957782 94.9029536,7.6389414 95.1898734,7.93383743 C95.5105485,8.26149968 95.7383966,8.6710775 95.8734177,9.16257089 C96.0084388,9.65406427 96.0759494,10.3175803 96.0759494,11.1531191 L96.0759494,17.7145558 C96.0759494,18.4026465 96.2236287,18.8695652 96.5189873,19.1153119 C96.814346,19.3610586 97.3080169,19.4839319 98,19.4839319 L98,20 C97.7130802,19.9836169 97.2742616,19.963138 96.6835443,19.9385633 C96.092827,19.9139887 95.5189873,19.9017013 94.9620253,19.9017013 C94.4050633,19.9017013 93.8607595,19.9139887 93.3291139,19.9385633 C92.7974684,19.963138 92.3966245,19.9836169 92.1265823,20 L92.1265823,19.4839319 C92.7341772,19.4839319 93.164557,19.3610586 93.4177215,19.1153119 C93.6708861,18.8695652 93.7974684,18.4026465 93.7974684,17.7145558 L93.7974684,10.6124764 C93.7974684,10.1045999 93.7552743,9.63768116 93.6708861,9.21172023 C93.5864979,8.78575929 93.3966245,8.44171393 93.1012658,8.17958412 C92.8059072,7.91745432 92.3544304,7.78638941 91.7468354,7.78638941 C91.0379747,7.78638941 90.4177215,7.98298677 89.8860759,8.37618147 C89.3544304,8.76937618 88.9409283,9.30592313 88.6455696,9.98582231 C88.350211,10.6657215 88.2025316,11.4234405 88.2025316,12.2589792 L88.2025316,17.7145558 C88.2025316,18.4026465 88.3291139,18.8695652 88.5822785,19.1153119 C88.835443,19.3610586 89.2658228,19.4839319 89.8734177,19.4839319 L89.8734177,20 C89.6033755,19.9836169 89.2025316,19.963138 88.6708861,19.9385633 C88.1392405,19.9139887 87.5949367,19.9017013 87.0379747,19.9017013 C86.4810127,19.9017013 85.907173,19.9139887 85.3164557,19.9385633 C84.7257384,19.963138 84.2869198,19.9836169 84,20 L84,19.4839319 C84.6919831,19.4839319 85.185654,19.3610586 85.4810127,19.1153119 C85.7763713,18.8695652 85.9240506,18.4026465 85.9240506,17.7145558 L85.9240506,10.0226843 C85.9240506,9.28544423 85.7890295,8.74070573 85.5189873,8.38846881 C85.2489451,8.03623188 84.742616,7.86011342 84,7.86011342 L84,7.34404537 C84.5400844,7.39319471 85.0632911,7.41776938 85.5696203,7.41776938 C86.0590717,7.41776938 86.5274262,7.38909893 86.9746835,7.33175803 C87.4219409,7.27441714 87.8312236,7.1884058 88.2025316,7.07372401 L88.2025316,9.97353497 C88.6413502,8.8594833 89.2531646,8.08538122 90.0379747,7.65122873 C90.8227848,7.21707624 91.6455696,7 92.5063291,7 Z" id="Path"></path>
            <path d="M105.419664,7 C106.826539,7 107.925659,7.45979128 108.717026,8.37937385 C109.508393,9.29895641 109.904077,10.7298956 109.904077,12.6721915 L101.438849,12.6721915 L101.414868,12.1823204 L107.601918,12.1823204 C107.633893,11.3400859 107.569944,10.5623082 107.410072,9.84898711 C107.2502,9.13566605 106.998401,8.56414979 106.654676,8.13443831 C106.310951,7.70472683 105.867306,7.48987109 105.323741,7.48987109 C104.588329,7.48987109 103.936851,7.88520565 103.369305,8.67587477 C102.801759,9.46654389 102.46203,10.7213014 102.35012,12.4401473 L102.422062,12.5432781 C102.390088,12.801105 102.366107,13.0847145 102.35012,13.3941068 C102.334133,13.7034991 102.326139,14.0128913 102.326139,14.3222836 C102.326139,15.4910988 102.501998,16.4966237 102.853717,17.3388582 C103.205436,18.1810927 103.665068,18.8213628 104.232614,19.2596685 C104.80016,19.6979742 105.38769,19.9171271 105.995204,19.9171271 C106.47482,19.9171271 106.930456,19.8354819 107.36211,19.6721915 C107.793765,19.5089012 108.193445,19.2381829 108.561151,18.8600368 C108.928857,18.4818907 109.248601,17.9748312 109.520384,17.3388582 L110,17.5451197 C109.824141,18.1123389 109.536371,18.6623696 109.136691,19.1952118 C108.73701,19.728054 108.233413,20.1620626 107.625899,20.4972376 C107.018385,20.8324125 106.314948,21 105.515588,21 C104.364508,21 103.377298,20.7163904 102.553957,20.1491713 C101.730616,19.5819521 101.099121,18.7955801 100.659472,17.7900552 C100.219824,16.7845304 100,15.6286065 100,14.3222836 C100,12.8096992 100.223821,11.5076734 100.671463,10.4162063 C101.119105,9.3247391 101.7506,8.4825046 102.565947,7.88950276 C103.381295,7.29650092 104.332534,7 105.419664,7 Z" id="Path"></path>
            <path d="M123.96028,2 C124.816978,2 125.468069,2.0941337 125.913551,2.28240109 C126.359034,2.47066849 126.753115,2.67939973 127.095794,2.90859482 C127.301402,3.02319236 127.468458,3.10914052 127.596963,3.16643929 C127.725467,3.22373806 127.849688,3.25238745 127.969626,3.25238745 C128.140966,3.25238745 128.265187,3.16234652 128.34229,2.98226467 C128.419393,2.80218281 128.483645,2.53206003 128.535047,2.17189632 L129.126168,2.17189632 C129.109034,2.45020464 129.087617,2.78171896 129.061916,3.16643929 C129.036215,3.55115962 129.019081,4.05866303 129.010514,4.68894952 C129.001947,5.31923602 128.997664,6.15006821 128.997664,7.18144611 L128.406542,7.18144611 C128.35514,6.39563438 128.175234,5.6425648 127.866822,4.92223738 C127.558411,4.20190996 127.108645,3.61255116 126.517523,3.15416098 C125.926402,2.6957708 125.15109,2.46657572 124.191589,2.46657572 C123.283489,2.46657572 122.533879,2.72851296 121.942757,3.25238745 C121.351636,3.77626194 121.056075,4.4638472 121.056075,5.31514325 C121.056075,6.05184175 121.253115,6.66984993 121.647196,7.1691678 C122.041277,7.66848568 122.568146,8.11869031 123.227804,8.51978172 C123.887461,8.92087312 124.602804,9.35061392 125.373832,9.80900409 C126.264798,10.3328786 127.057243,10.8526603 127.751168,11.3683492 C128.445093,11.8840382 128.99338,12.4529332 129.396028,13.0750341 C129.798676,13.6971351 130,14.4502046 130,15.3342428 C130,16.3819918 129.751558,17.2496589 129.254673,17.9372442 C128.757788,18.6248295 128.098131,19.1405184 127.275701,19.4843111 C126.453271,19.8281037 125.545171,20 124.551402,20 C123.643302,20 122.923676,19.9017735 122.392523,19.7053206 C121.861371,19.5088677 121.407321,19.3042292 121.030374,19.0914052 C120.653427,18.8622101 120.36215,18.7476126 120.156542,18.7476126 C119.985202,18.7476126 119.860981,18.8376535 119.783879,19.0177353 C119.706776,19.1978172 119.642523,19.46794 119.591121,19.8281037 L119,19.8281037 C119.034268,19.4843111 119.055685,19.0791269 119.064252,18.6125512 C119.072819,18.1459754 119.081386,17.5361528 119.089953,16.7830832 C119.09852,16.0300136 119.102804,15.0804911 119.102804,13.9345157 L119.693925,13.9345157 C119.762461,14.9167804 119.955218,15.8335607 120.272196,16.6848568 C120.589174,17.5361528 121.077492,18.2196453 121.73715,18.7353342 C122.396807,19.2510232 123.274922,19.5088677 124.371495,19.5088677 C124.936916,19.5088677 125.472352,19.3983629 125.977804,19.1773533 C126.483255,18.9563438 126.898754,18.6043656 127.224299,18.1214188 C127.549844,17.638472 127.712617,17.0122783 127.712617,16.2428377 C127.712617,15.5716235 127.545561,14.9863574 127.211449,14.4870396 C126.877336,13.9877217 126.410436,13.521146 125.810748,13.0873124 C125.211059,12.6534789 124.508567,12.207367 123.703271,11.7489768 C122.897975,11.2742156 122.144081,10.7912688 121.441589,10.3001364 C120.739097,9.80900409 120.17796,9.24010914 119.758178,8.59345157 C119.338396,7.946794 119.128505,7.16507503 119.128505,6.24829468 C119.128505,5.28240109 119.35553,4.48431105 119.809579,3.85402456 C120.263629,3.22373806 120.859034,2.75716235 121.595794,2.45429741 C122.332555,2.15143247 123.120717,2 123.96028,2 Z" id="Path"></path>
            <path d="M138.5,7 C139.533774,7 140.462555,7.24063843 141.286344,7.72191529 C142.110132,8.20319214 142.768355,8.95948435 143.261013,9.9907919 C143.753671,11.0220994 144,12.3627993 144,14.0128913 C144,15.6629834 143.753671,16.9993861 143.261013,18.0220994 C142.768355,19.0448128 142.110132,19.7968079 141.286344,20.2780847 C140.462555,20.7593616 139.533774,21 138.5,21 C137.482379,21 136.557636,20.7593616 135.725771,20.2780847 C134.893906,19.7968079 134.231645,19.0448128 133.738987,18.0220994 C133.246329,16.9993861 133,15.6629834 133,14.0128913 C133,12.3627993 133.246329,11.0220994 133.738987,9.9907919 C134.231645,8.95948435 134.893906,8.20319214 135.725771,7.72191529 C136.557636,7.24063843 137.482379,7 138.5,7 Z M138.5,7.51565378 C137.579295,7.51565378 136.824156,8.02271332 136.234581,9.03683241 C135.645007,10.0509515 135.35022,11.7096378 135.35022,14.0128913 C135.35022,16.3161449 135.645007,17.9705341 136.234581,18.9760589 C136.824156,19.9815838 137.579295,20.4843462 138.5,20.4843462 C139.420705,20.4843462 140.175844,19.9815838 140.765419,18.9760589 C141.354993,17.9705341 141.64978,16.3161449 141.64978,14.0128913 C141.64978,11.7096378 141.354993,10.0509515 140.765419,9.03683241 C140.175844,8.02271332 139.420705,7.51565378 138.5,7.51565378 Z" id="Shape"></path>
            <path d="M152.11413,0 C152.570652,0 152.974185,0.0639386189 153.324728,0.191815857 C153.675272,0.319693095 153.980978,0.485933504 154.241848,0.690537084 C154.486413,0.895140665 154.673913,1.13384484 154.804348,1.40664962 C154.934783,1.67945439 155,1.96930946 155,2.27621483 C155,2.6683717 154.877717,2.99232737 154.633152,3.24808184 C154.388587,3.50383632 154.078804,3.63171355 153.703804,3.63171355 C153.345109,3.63171355 153.03125,3.50809889 152.762228,3.26086957 C152.493207,3.01364024 152.358696,2.67689685 152.358696,2.25063939 C152.358696,1.89258312 152.452446,1.60272805 152.639946,1.38107417 C152.827446,1.15942029 153.076087,1.01449275 153.38587,0.94629156 C153.336957,0.792838875 153.210598,0.660699062 153.006793,0.549872123 C152.802989,0.439045183 152.529891,0.383631714 152.1875,0.383631714 C151.8125,0.383631714 151.490489,0.468883205 151.221467,0.639386189 C150.952446,0.809889173 150.744565,1.0400682 150.597826,1.32992327 C150.402174,1.68797954 150.279891,2.22080136 150.230978,2.92838875 C150.182065,3.63597613 150.157609,4.72293265 150.157609,6.18925831 L150.157609,6.85421995 L152.774457,6.85421995 L152.774457,7.3657289 L150.157609,7.3657289 L150.157609,17.3657289 C150.157609,18.2011935 150.389946,18.7595908 150.85462,19.0409207 C151.319293,19.3222506 151.951087,19.4629156 152.75,19.4629156 L152.75,20 C152.375,19.9829497 151.845109,19.9616368 151.160326,19.9360614 C150.475543,19.9104859 149.75,19.8976982 148.983696,19.8976982 C148.429348,19.8976982 147.879076,19.9104859 147.33288,19.9360614 C146.786685,19.9616368 146.375,19.9829497 146.097826,20 L146.097826,19.4629156 C146.766304,19.4629156 147.243207,19.3350384 147.528533,19.0792839 C147.813859,18.8235294 147.956522,18.3375959 147.956522,17.6214834 L147.956522,7.3657289 L146,7.3657289 L146,6.85421995 L147.956522,6.85421995 C147.956522,5.84825234 147.997283,5.00426257 148.078804,4.32225064 C148.160326,3.6402387 148.290761,3.05626598 148.470109,2.57033248 C148.649457,2.08439898 148.894022,1.65387894 149.203804,1.27877238 C149.529891,0.886615516 149.945652,0.57544757 150.451087,0.345268542 C150.956522,0.115089514 151.51087,0 152.11413,0 Z" id="Path"></path>
            <path d="M157.65,3 L157.65,7.08489209 L161.35,7.08489209 L161.35,7.57410072 L157.65,7.57410072 L157.65,17.0402878 C157.65,17.8067146 157.791667,18.3448441 158.075,18.6546763 C158.358333,18.9645084 158.75,19.1194245 159.25,19.1194245 C159.75,19.1194245 160.183333,18.9196643 160.55,18.5201439 C160.916667,18.1206235 161.233333,17.4479616 161.5,16.5021583 L162,16.6244604 C161.833333,17.5702638 161.504167,18.3693046 161.0125,19.0215827 C160.520833,19.6738609 159.766667,20 158.75,20 C158.183333,20 157.716667,19.9306954 157.35,19.7920863 C156.983333,19.6534772 156.658333,19.453717 156.375,19.1928058 C156.008333,18.8177458 155.754167,18.3693046 155.6125,17.847482 C155.470833,17.3256595 155.4,16.6326139 155.4,15.7683453 L155.4,7.57410072 L153,7.57410072 L153,7.08489209 L155.4,7.08489209 L155.4,3.34244604 C155.816667,3.32613909 156.216667,3.29352518 156.6,3.24460432 C156.983333,3.19568345 157.333333,3.11414868 157.65,3 Z" id="Path"></path>
            <path d="M167.400261,7.09923664 L167.400261,7.62022901 C166.987397,7.62022901 166.624076,7.64917303 166.3103,7.70706107 C165.996523,7.76494911 165.790091,7.93447837 165.691004,8.21564885 C165.591917,8.49681934 165.666232,8.99300254 165.91395,9.70419847 L168.490222,17.0973282 L168.316819,17.0725191 L171.958279,7 L172.453716,7.19847328 L167.920469,20 C167.854411,20 167.788353,20 167.722295,20 C167.656236,20 167.581921,20 167.499348,20 L163.436767,9.00954198 C163.172534,8.34796438 162.912429,7.95101781 162.656454,7.81870229 C162.400478,7.68638677 162.18166,7.62022901 162,7.62022901 L162,7.09923664 C162.330291,7.14885496 162.672968,7.1860687 163.028031,7.21087786 C163.383094,7.23568702 163.767058,7.2480916 164.179922,7.2480916 C164.691873,7.2480916 165.232725,7.23155216 165.802477,7.19847328 C166.372229,7.1653944 166.904824,7.13231552 167.400261,7.09923664 Z M181,7.09923664 L181,7.59541985 C180.686223,7.62849873 180.39309,7.76494911 180.1206,8.00477099 C179.84811,8.24459288 179.60452,8.6870229 179.389831,9.33206107 L175.797914,20 C175.731856,20 175.665797,20 175.599739,20 C175.533681,20 175.459365,20 175.376793,20 L171.388527,9.85305344 L171.958279,7 C172.057366,7 172.152325,7 172.243155,7 C172.333985,7 172.428944,7 172.528031,7 L176.392438,17.2461832 L176.194263,17.3950382 L178.646675,9.92748092 C178.828336,9.36513995 178.898522,8.92270992 178.857236,8.60019084 C178.81595,8.27767176 178.650804,8.03784987 178.361799,7.88072519 C178.072794,7.72360051 177.63103,7.62849873 177.036506,7.59541985 L177.036506,7.09923664 C177.333768,7.11577608 177.589744,7.12818066 177.804433,7.13645038 C178.019122,7.1447201 178.229683,7.15298982 178.436115,7.16125954 C178.642547,7.16952926 178.869622,7.17366412 179.11734,7.17366412 C179.497175,7.17366412 179.839852,7.1653944 180.145372,7.14885496 C180.450891,7.13231552 180.735767,7.11577608 181,7.09923664 Z" id="Shape"></path>
            <path d="M185.458515,20 C184.742358,20 184.122271,19.8746891 183.598253,19.6240672 C183.074236,19.3734453 182.676856,19.0217662 182.406114,18.5690299 C182.135371,18.1162935 182,17.590796 182,16.9925373 C182,16.2810945 182.179039,15.699005 182.537118,15.2462687 C182.895197,14.7935323 183.353712,14.4297264 183.912664,14.1548507 C184.471616,13.8799751 185.061135,13.6495647 185.681223,13.4636194 C186.30131,13.2776741 186.89083,13.0998134 187.449782,12.9300373 C188.008734,12.7602612 188.467249,12.5621891 188.825328,12.3358209 C189.183406,12.1094527 189.362445,11.8103234 189.362445,11.4384328 L189.362445,9.93470149 C189.362445,9.25559701 189.253275,8.73818408 189.034934,8.38246269 C188.816594,8.02674129 188.524017,7.78824627 188.157205,7.66697761 C187.790393,7.54570896 187.379913,7.48507463 186.925764,7.48507463 C186.489083,7.48507463 186.021834,7.54166667 185.524017,7.65485075 C185.026201,7.76803483 184.628821,8.00248756 184.331878,8.35820896 C184.663755,8.42288557 184.951965,8.58457711 185.196507,8.84328358 C185.441048,9.10199005 185.563319,9.43345771 185.563319,9.83768657 C185.563319,10.2419154 185.423581,10.5612562 185.144105,10.795709 C184.864629,11.0301617 184.50655,11.1473881 184.069869,11.1473881 C183.563319,11.1473881 183.19214,10.9978234 182.956332,10.698694 C182.720524,10.3995647 182.60262,10.0640547 182.60262,9.69216418 C182.60262,9.27176617 182.716157,8.93221393 182.943231,8.67350746 C183.170306,8.414801 183.458515,8.17226368 183.80786,7.94589552 C184.209607,7.68718905 184.729258,7.46486318 185.366812,7.27891791 C186.004367,7.09297264 186.724891,7 187.528384,7 C188.244541,7 188.855895,7.07680348 189.362445,7.23041045 C189.868996,7.38401741 190.28821,7.60634328 190.620087,7.89738806 C191.074236,8.28544776 191.371179,8.75839552 191.510917,9.31623134 C191.650655,9.87406716 191.720524,10.5410448 191.720524,11.3171642 L191.720524,18.0597015 C191.720524,18.4639303 191.786026,18.7549751 191.917031,18.9328358 C192.048035,19.1106965 192.253275,19.1996269 192.532751,19.1996269 C192.724891,19.1996269 192.908297,19.159204 193.082969,19.0783582 C193.257642,18.9975124 193.467249,18.8681592 193.71179,18.6902985 L194,19.1026119 C193.633188,19.3613184 193.283843,19.5755597 192.951965,19.7453358 C192.620087,19.9151119 192.174672,20 191.615721,20 C191.10917,20 190.689956,19.9191542 190.358079,19.7574627 C190.026201,19.5957711 189.777293,19.3572761 189.611354,19.0419776 C189.445415,18.7266791 189.362445,18.3264925 189.362445,17.8414179 C188.89083,18.5690299 188.327511,19.1106965 187.672489,19.4664179 C187.017467,19.8221393 186.279476,20 185.458515,20 Z M186.401747,19.0298507 C186.978166,19.0298507 187.515284,18.8762438 188.0131,18.5690299 C188.510917,18.2618159 188.960699,17.800995 189.362445,17.1865672 L189.362445,12.4328358 C189.152838,12.7077114 188.847162,12.9381219 188.445415,13.1240672 C188.043668,13.3100124 187.606987,13.4959577 187.135371,13.681903 C186.663755,13.8678483 186.213974,14.0861318 185.786026,14.3367537 C185.358079,14.5873756 185.004367,14.914801 184.724891,15.3190299 C184.445415,15.7232587 184.305677,16.2487562 184.305677,16.8955224 C184.305677,17.5422886 184.49345,18.0597015 184.868996,18.4477612 C185.244541,18.8358209 185.755459,19.0298507 186.401747,19.0298507 Z" id="Shape"></path>
            <path d="M202.736318,7 C203.18408,7 203.577944,7.09010712 203.91791,7.27032136 C204.257877,7.4505356 204.523217,7.68399496 204.71393,7.97069943 C204.904643,8.25740391 205,8.58097038 205,8.94139887 C205,9.35097669 204.871476,9.71140517 204.614428,10.0226843 C204.35738,10.3339635 204.013267,10.489603 203.58209,10.489603 C203.233831,10.489603 202.927032,10.379017 202.661692,10.157845 C202.396352,9.93667297 202.263682,9.62129805 202.263682,9.21172023 C202.263682,8.90044108 202.350746,8.6342155 202.524876,8.41304348 C202.699005,8.19187146 202.893864,8.01575299 203.109453,7.88468809 C202.993367,7.72085696 202.819237,7.6389414 202.587065,7.6389414 C202.072968,7.6389414 201.600332,7.79048519 201.169154,8.09357278 C200.737977,8.39666037 200.373134,8.78575929 200.074627,9.26086957 C199.776119,9.73597984 199.543947,10.2397606 199.378109,10.7722117 C199.212272,11.3046629 199.129353,11.800252 199.129353,12.2589792 L199.129353,17.4688091 C199.129353,18.2715816 199.365672,18.8081285 199.838308,19.0784499 C200.310945,19.3487713 200.953566,19.4839319 201.766169,19.4839319 L201.766169,20 C201.384743,19.9836169 200.845771,19.963138 200.149254,19.9385633 C199.452736,19.9139887 198.71476,19.9017013 197.935323,19.9017013 C197.371476,19.9017013 196.811774,19.9139887 196.256219,19.9385633 C195.700663,19.963138 195.281924,19.9836169 195,20 L195,19.4839319 C195.679934,19.4839319 196.165008,19.3610586 196.455224,19.1153119 C196.745439,18.8695652 196.890547,18.4026465 196.890547,17.7145558 L196.890547,10.0226843 C196.890547,9.28544423 196.757877,8.74070573 196.492537,8.38846881 C196.227197,8.03623188 195.729685,7.86011342 195,7.86011342 L195,7.34404537 C195.53068,7.39319471 196.044776,7.41776938 196.542289,7.41776938 C197.023217,7.41776938 197.483416,7.38909893 197.922886,7.33175803 C198.362355,7.27441714 198.764511,7.1884058 199.129353,7.07372401 L199.129353,10.1455577 C199.311774,9.67044739 199.572968,9.19124134 199.912935,8.70793951 C200.252902,8.22463768 200.66335,7.81915564 201.144279,7.49149338 C201.625207,7.16383113 202.155887,7 202.736318,7 Z" id="Path"></path>
            <path d="M212.419664,7 C213.826539,7 214.925659,7.45979128 215.717026,8.37937385 C216.508393,9.29895641 216.904077,10.7298956 216.904077,12.6721915 L208.438849,12.6721915 L208.414868,12.1823204 L214.601918,12.1823204 C214.633893,11.3400859 214.569944,10.5623082 214.410072,9.84898711 C214.2502,9.13566605 213.998401,8.56414979 213.654676,8.13443831 C213.310951,7.70472683 212.867306,7.48987109 212.323741,7.48987109 C211.588329,7.48987109 210.936851,7.88520565 210.369305,8.67587477 C209.801759,9.46654389 209.46203,10.7213014 209.35012,12.4401473 L209.422062,12.5432781 C209.390088,12.801105 209.366107,13.0847145 209.35012,13.3941068 C209.334133,13.7034991 209.326139,14.0128913 209.326139,14.3222836 C209.326139,15.4910988 209.501998,16.4966237 209.853717,17.3388582 C210.205436,18.1810927 210.665068,18.8213628 211.232614,19.2596685 C211.80016,19.6979742 212.38769,19.9171271 212.995204,19.9171271 C213.47482,19.9171271 213.930456,19.8354819 214.36211,19.6721915 C214.793765,19.5089012 215.193445,19.2381829 215.561151,18.8600368 C215.928857,18.4818907 216.248601,17.9748312 216.520384,17.3388582 L217,17.5451197 C216.824141,18.1123389 216.536371,18.6623696 216.136691,19.1952118 C215.73701,19.728054 215.233413,20.1620626 214.625899,20.4972376 C214.018385,20.8324125 213.314948,21 212.515588,21 C211.364508,21 210.377298,20.7163904 209.553957,20.1491713 C208.730616,19.5819521 208.099121,18.7955801 207.659472,17.7900552 C207.219824,16.7845304 207,15.6286065 207,14.3222836 C207,12.8096992 207.223821,11.5076734 207.671463,10.4162063 C208.119105,9.3247391 208.7506,8.4825046 209.565947,7.88950276 C210.381295,7.29650092 211.332534,7 212.419664,7 Z" id="Path"></path>
        </g>
    </g>
</svg>